<svg width="20" height="21" viewBox="0 0 20 21" fill="none" xmlns="http://www.w3.org/2000/svg">
<g clip-path="url(#clip0_7063_542)">
<path d="M6.96672 0.695865C4.96841 1.3891 3.24507 2.70487 2.04983 4.44993C0.854594 6.19499 0.250458 8.27734 0.326162 10.3911C0.401867 12.5049 1.15342 14.5387 2.47044 16.1938C3.78745 17.8489 5.6005 19.038 7.64328 19.5865C9.29941 20.0138 11.0345 20.0326 12.6995 19.6412C14.2078 19.3024 15.6023 18.5777 16.7464 17.5381C17.9372 16.423 18.8015 15.0044 19.2464 13.4349C19.7299 11.7281 19.8159 9.93327 19.498 8.18805H10.198V12.0459H15.5839C15.4763 12.6612 15.2456 13.2484 14.9057 13.7725C14.5658 14.2965 14.1237 14.7467 13.6058 15.0959C12.9482 15.5311 12.2068 15.8238 11.4292 15.9552C10.6494 16.1003 9.84962 16.1003 9.06985 15.9552C8.27946 15.792 7.53178 15.4658 6.87453 14.9974C5.81852 14.2499 5.02559 13.1879 4.60891 11.9631C4.1853 10.7152 4.1853 9.36246 4.60891 8.11461C4.90551 7.23995 5.39584 6.44358 6.04328 5.78493C6.78421 5.01734 7.72224 4.46867 8.75446 4.19911C9.78669 3.92955 10.8732 3.94951 11.8948 4.2568C12.693 4.50168 13.4228 4.92974 14.0261 5.5068C14.6334 4.90264 15.2396 4.29691 15.8448 3.68962C16.1573 3.36305 16.498 3.05211 16.8058 2.71774C15.8847 1.86074 14.8037 1.19384 13.6245 0.75524C11.4772 -0.0244634 9.12762 -0.0454172 6.96672 0.695865Z" fill="black"/>
<path d="M6.9666 0.695892C9.12733 -0.0458941 11.4769 -0.0254919 13.6244 0.753704C14.8038 1.19528 15.8843 1.86539 16.8041 2.72558C16.4916 3.05995 16.1619 3.37245 15.8432 3.69745C15.2369 4.30266 14.6312 4.90579 14.026 5.50683C13.4227 4.92976 12.6928 4.50171 11.8947 4.25683C10.8734 3.94846 9.78694 3.92734 8.75444 4.1958C7.72195 4.46426 6.78334 5.01193 6.0416 5.7787C5.39415 6.43735 4.90383 7.23373 4.60723 8.10839L1.36816 5.60058C2.52755 3.30146 4.53496 1.5428 6.9666 0.695892Z" fill="#E33629"/>
<path d="M0.508687 8.08496C0.682655 7.2221 0.971696 6.38651 1.36806 5.60059L4.60712 8.11465C4.18351 9.36249 4.18351 10.7152 4.60712 11.9631C3.52796 12.7964 2.44827 13.6339 1.36806 14.4756C0.37611 12.5011 0.0735817 10.2514 0.508687 8.08496Z" fill="#F8BD00"/>
<path d="M10.198 8.18652H19.498C19.8159 9.93174 19.7299 11.7266 19.2464 13.4334C18.8015 15.0029 17.9371 16.4214 16.7464 17.5365C15.7011 16.7209 14.6511 15.9115 13.6058 15.0959C14.124 14.7463 14.5663 14.2957 14.9063 13.7711C15.2462 13.2465 15.4766 12.6586 15.5839 12.0428H10.198C10.1964 10.7584 10.198 9.47246 10.198 8.18652Z" fill="#587DBD"/>
<path d="M1.3667 14.4756C2.44691 13.6423 3.52659 12.8048 4.60576 11.9631C5.02327 13.1884 5.81733 14.2505 6.87451 14.9975C7.53381 15.4637 8.2831 15.7873 9.07451 15.9475C9.85428 16.0925 10.6541 16.0925 11.4339 15.9475C12.2114 15.8161 12.9529 15.5233 13.6104 15.0881C14.6558 15.9038 15.7058 16.7131 16.7511 17.5288C15.6072 18.569 14.2127 19.2942 12.7042 19.6334C11.0392 20.0249 9.30408 20.0061 7.64795 19.5788C6.33811 19.229 5.11463 18.6125 4.0542 17.7678C2.9319 16.8766 2.01519 15.7536 1.3667 14.4756Z" fill="#319F43"/>
</g>
<defs>
<clipPath id="clip0_7063_542">
<rect width="20" height="20" fill="white" transform="translate(-0.000488281 0.0380859)"/>
</clipPath>
</defs>
</svg>
