<svg width="190" height="140" viewBox="0 0 190 140" fill="none" xmlns="http://www.w3.org/2000/svg">
<rect x="0.5" y="0.5" width="189" height="139" rx="11.5" fill="#F5F5F5" stroke="#DEDEDE" stroke-dasharray="5 5"/>
<circle cx="95" cy="48.5" r="19.5" fill="#EC6707"/>
<path d="M94.5003 53.3332V47.9998M94.5003 47.9998V42.6665M94.5003 47.9998H99.8337M94.5003 47.9998H89.167" stroke="white" stroke-width="1.5" stroke-linecap="round"/>
<path d="M38.069 77.926C39.0223 77.926 39.8587 78.1123 40.578 78.485C41.306 78.8577 41.865 79.3907 42.255 80.084C42.6537 80.7687 42.853 81.566 42.853 82.476C42.853 83.386 42.6537 84.1833 42.255 84.868C41.865 85.544 41.306 86.0683 40.578 86.441C39.8587 86.8137 39.0223 87 38.069 87H34.897V77.926H38.069ZM38.004 85.453C38.9573 85.453 39.694 85.193 40.214 84.673C40.734 84.153 40.994 83.4207 40.994 82.476C40.994 81.5313 40.734 80.7947 40.214 80.266C39.694 79.7287 38.9573 79.46 38.004 79.46H36.717V85.453H38.004ZM43.7474 83.373C43.7474 82.645 43.8904 81.9993 44.1764 81.436C44.471 80.8727 44.8654 80.4393 45.3594 80.136C45.862 79.8327 46.421 79.681 47.0364 79.681C47.5737 79.681 48.0417 79.7893 48.4404 80.006C48.8477 80.2227 49.1727 80.4957 49.4154 80.825V79.798H51.2484V87H49.4154V85.947C49.1814 86.285 48.8564 86.5667 48.4404 86.792C48.033 87.0087 47.5607 87.117 47.0234 87.117C46.4167 87.117 45.862 86.961 45.3594 86.649C44.8654 86.337 44.471 85.8993 44.1764 85.336C43.8904 84.764 43.7474 84.1097 43.7474 83.373ZM49.4154 83.399C49.4154 82.957 49.3287 82.58 49.1554 82.268C48.982 81.9473 48.748 81.7047 48.4534 81.54C48.1587 81.3667 47.8424 81.28 47.5044 81.28C47.1664 81.28 46.8544 81.3623 46.5684 81.527C46.2824 81.6917 46.0484 81.9343 45.8664 82.255C45.693 82.567 45.6064 82.9397 45.6064 83.373C45.6064 83.8063 45.693 84.1877 45.8664 84.517C46.0484 84.8377 46.2824 85.0847 46.5684 85.258C46.863 85.4313 47.175 85.518 47.5044 85.518C47.8424 85.518 48.1587 85.4357 48.4534 85.271C48.748 85.0977 48.982 84.855 49.1554 84.543C49.3287 84.2223 49.4154 83.841 49.4154 83.399ZM55.1449 81.293V84.777C55.1449 85.0197 55.2012 85.1973 55.3139 85.31C55.4352 85.414 55.6346 85.466 55.9119 85.466H56.7569V87H55.6129C54.0789 87 53.3119 86.2547 53.3119 84.764V81.293H52.4539V79.798H53.3119V78.017H55.1449V79.798H56.7569V81.293H55.1449ZM64.7609 83.243C64.7609 83.503 64.7436 83.737 64.7089 83.945H59.4439C59.4873 84.465 59.6693 84.8723 59.9899 85.167C60.3106 85.4617 60.7049 85.609 61.1729 85.609C61.8489 85.609 62.3299 85.3187 62.6159 84.738H64.5789C64.3709 85.4313 63.9723 86.0033 63.3829 86.454C62.7936 86.896 62.0699 87.117 61.2119 87.117C60.5186 87.117 59.8946 86.9653 59.3399 86.662C58.7939 86.35 58.3649 85.9123 58.0529 85.349C57.7496 84.7857 57.5979 84.1357 57.5979 83.399C57.5979 82.6537 57.7496 81.9993 58.0529 81.436C58.3563 80.8727 58.7809 80.4393 59.3269 80.136C59.8729 79.8327 60.5013 79.681 61.2119 79.681C61.8966 79.681 62.5076 79.8283 63.0449 80.123C63.5909 80.4177 64.0113 80.838 64.3059 81.384C64.6093 81.9213 64.7609 82.541 64.7609 83.243ZM62.8759 82.723C62.8673 82.255 62.6983 81.8823 62.3689 81.605C62.0396 81.319 61.6366 81.176 61.1599 81.176C60.7093 81.176 60.3279 81.3147 60.0159 81.592C59.7126 81.8607 59.5263 82.2377 59.4569 82.723H62.8759ZM70.0804 79.694C70.9384 79.694 71.6317 79.967 72.1604 80.513C72.689 81.0503 72.9534 81.8043 72.9534 82.775V87H71.1334V83.022C71.1334 82.45 70.9904 82.0123 70.7044 81.709C70.4184 81.397 70.0284 81.241 69.5344 81.241C69.0317 81.241 68.633 81.397 68.3384 81.709C68.0524 82.0123 67.9094 82.45 67.9094 83.022V87H66.0894V79.798H67.9094V80.695C68.152 80.383 68.4597 80.1403 68.8324 79.967C69.2137 79.785 69.6297 79.694 70.0804 79.694ZM78.7048 78.94C78.3841 78.94 78.1154 78.8403 77.8988 78.641C77.6908 78.433 77.5868 78.1773 77.5868 77.874C77.5868 77.5707 77.6908 77.3193 77.8988 77.12C78.1154 76.912 78.3841 76.808 78.7048 76.808C79.0254 76.808 79.2898 76.912 79.4978 77.12C79.7144 77.3193 79.8228 77.5707 79.8228 77.874C79.8228 78.1773 79.7144 78.433 79.4978 78.641C79.2898 78.8403 79.0254 78.94 78.7048 78.94ZM79.6018 79.798V87H77.7818V79.798H79.6018ZM90.3439 79.694C91.2279 79.694 91.9386 79.967 92.4759 80.513C93.0219 81.0503 93.2949 81.8043 93.2949 82.775V87H91.4749V83.022C91.4749 82.4587 91.3319 82.0297 91.0459 81.735C90.7599 81.4317 90.3699 81.28 89.8759 81.28C89.3819 81.28 88.9876 81.4317 88.6929 81.735C88.4069 82.0297 88.2639 82.4587 88.2639 83.022V87H86.4439V83.022C86.4439 82.4587 86.3009 82.0297 86.0149 81.735C85.7289 81.4317 85.3389 81.28 84.8449 81.28C84.3423 81.28 83.9436 81.4317 83.6489 81.735C83.3629 82.0297 83.2199 82.4587 83.2199 83.022V87H81.3999V79.798H83.2199V80.669C83.4539 80.3657 83.7529 80.1273 84.1169 79.954C84.4896 79.7807 84.8969 79.694 85.3389 79.694C85.9023 79.694 86.4049 79.8153 86.8469 80.058C87.2889 80.292 87.6313 80.63 87.8739 81.072C88.1079 80.656 88.4459 80.3223 88.8879 80.071C89.3386 79.8197 89.8239 79.694 90.3439 79.694ZM96.842 80.838C97.076 80.5087 97.3967 80.2357 97.804 80.019C98.22 79.7937 98.6923 79.681 99.221 79.681C99.8363 79.681 100.391 79.8327 100.885 80.136C101.388 80.4393 101.782 80.8727 102.068 81.436C102.363 81.9907 102.51 82.6363 102.51 83.373C102.51 84.1097 102.363 84.764 102.068 85.336C101.782 85.8993 101.388 86.337 100.885 86.649C100.391 86.961 99.8363 87.117 99.221 87.117C98.6923 87.117 98.2243 87.0087 97.817 86.792C97.4183 86.5753 97.0933 86.3023 96.842 85.973V90.432H95.022V79.798H96.842V80.838ZM100.651 83.373C100.651 82.9397 100.56 82.567 100.378 82.255C100.205 81.9343 99.9707 81.6917 99.676 81.527C99.39 81.3623 99.078 81.28 98.74 81.28C98.4107 81.28 98.0987 81.3667 97.804 81.54C97.518 81.7047 97.284 81.9473 97.102 82.268C96.9287 82.5887 96.842 82.9657 96.842 83.399C96.842 83.8323 96.9287 84.2093 97.102 84.53C97.284 84.8507 97.518 85.0977 97.804 85.271C98.0987 85.4357 98.4107 85.518 98.74 85.518C99.078 85.518 99.39 85.4313 99.676 85.258C99.9707 85.0847 100.205 84.8377 100.378 84.517C100.56 84.1963 100.651 83.815 100.651 83.373ZM107.031 87.117C106.337 87.117 105.713 86.9653 105.159 86.662C104.604 86.35 104.166 85.9123 103.846 85.349C103.534 84.7857 103.378 84.1357 103.378 83.399C103.378 82.6623 103.538 82.0123 103.859 81.449C104.188 80.8857 104.634 80.4523 105.198 80.149C105.761 79.837 106.389 79.681 107.083 79.681C107.776 79.681 108.404 79.837 108.968 80.149C109.531 80.4523 109.973 80.8857 110.294 81.449C110.623 82.0123 110.788 82.6623 110.788 83.399C110.788 84.1357 110.619 84.7857 110.281 85.349C109.951 85.9123 109.501 86.35 108.929 86.662C108.365 86.9653 107.733 87.117 107.031 87.117ZM107.031 85.531C107.36 85.531 107.668 85.453 107.954 85.297C108.248 85.1323 108.482 84.8897 108.656 84.569C108.829 84.2483 108.916 83.8583 108.916 83.399C108.916 82.7143 108.734 82.19 108.37 81.826C108.014 81.4533 107.577 81.267 107.057 81.267C106.537 81.267 106.099 81.4533 105.744 81.826C105.397 82.19 105.224 82.7143 105.224 83.399C105.224 84.0837 105.393 84.6123 105.731 84.985C106.077 85.349 106.511 85.531 107.031 85.531ZM113.943 80.916C114.177 80.5347 114.48 80.2357 114.853 80.019C115.234 79.8023 115.667 79.694 116.153 79.694V81.605H115.672C115.1 81.605 114.666 81.7393 114.372 82.008C114.086 82.2767 113.943 82.7447 113.943 83.412V87H112.123V79.798H113.943V80.916ZM119.497 81.293V84.777C119.497 85.0197 119.554 85.1973 119.666 85.31C119.788 85.414 119.987 85.466 120.264 85.466H121.109V87H119.965C118.431 87 117.664 86.2547 117.664 84.764V81.293H116.806V79.798H117.664V78.017H119.497V79.798H121.109V81.293H119.497ZM123.341 78.94C123.021 78.94 122.752 78.8403 122.535 78.641C122.327 78.433 122.223 78.1773 122.223 77.874C122.223 77.5707 122.327 77.3193 122.535 77.12C122.752 76.912 123.021 76.808 123.341 76.808C123.662 76.808 123.926 76.912 124.134 77.12C124.351 77.3193 124.459 77.5707 124.459 77.874C124.459 78.1773 124.351 78.433 124.134 78.641C123.926 78.8403 123.662 78.94 123.341 78.94ZM124.238 79.798V87H122.418V79.798H124.238ZM132.732 83.243C132.732 83.503 132.714 83.737 132.68 83.945H127.415C127.458 84.465 127.64 84.8723 127.961 85.167C128.281 85.4617 128.676 85.609 129.144 85.609C129.82 85.609 130.301 85.3187 130.587 84.738H132.55C132.342 85.4313 131.943 86.0033 131.354 86.454C130.764 86.896 130.041 87.117 129.183 87.117C128.489 87.117 127.865 86.9653 127.311 86.662C126.765 86.35 126.336 85.9123 126.024 85.349C125.72 84.7857 125.569 84.1357 125.569 83.399C125.569 82.6537 125.72 81.9993 126.024 81.436C126.327 80.8727 126.752 80.4393 127.298 80.136C127.844 79.8327 128.472 79.681 129.183 79.681C129.867 79.681 130.478 79.8283 131.016 80.123C131.562 80.4177 131.982 80.838 132.277 81.384C132.58 81.9213 132.732 82.541 132.732 83.243ZM130.847 82.723C130.838 82.255 130.669 81.8823 130.34 81.605C130.01 81.319 129.607 81.176 129.131 81.176C128.68 81.176 128.299 81.3147 127.987 81.592C127.683 81.8607 127.497 82.2377 127.428 82.723H130.847ZM135.88 80.916C136.114 80.5347 136.417 80.2357 136.79 80.019C137.171 79.8023 137.605 79.694 138.09 79.694V81.605H137.609C137.037 81.605 136.604 81.7393 136.309 82.008C136.023 82.2767 135.88 82.7447 135.88 83.412V87H134.06V79.798H135.88V80.916ZM146.011 83.243C146.011 83.503 145.994 83.737 145.959 83.945H140.694C140.737 84.465 140.919 84.8723 141.24 85.167C141.561 85.4617 141.955 85.609 142.423 85.609C143.099 85.609 143.58 85.3187 143.866 84.738H145.829C145.621 85.4313 145.222 86.0033 144.633 86.454C144.044 86.896 143.32 87.117 142.462 87.117C141.769 87.117 141.145 86.9653 140.59 86.662C140.044 86.35 139.615 85.9123 139.303 85.349C139 84.7857 138.848 84.1357 138.848 83.399C138.848 82.6537 139 81.9993 139.303 81.436C139.606 80.8727 140.031 80.4393 140.577 80.136C141.123 79.8327 141.751 79.681 142.462 79.681C143.147 79.681 143.758 79.8283 144.295 80.123C144.841 80.4177 145.261 80.838 145.556 81.384C145.859 81.9213 146.011 82.541 146.011 83.243ZM144.126 82.723C144.117 82.255 143.948 81.8823 143.619 81.605C143.29 81.319 142.887 81.176 142.41 81.176C141.959 81.176 141.578 81.3147 141.266 81.592C140.963 81.8607 140.776 82.2377 140.707 82.723H144.126ZM151.33 79.694C152.188 79.694 152.882 79.967 153.41 80.513C153.939 81.0503 154.203 81.8043 154.203 82.775V87H152.383V83.022C152.383 82.45 152.24 82.0123 151.954 81.709C151.668 81.397 151.278 81.241 150.784 81.241C150.282 81.241 149.883 81.397 149.588 81.709C149.302 82.0123 149.159 82.45 149.159 83.022V87H147.339V79.798H149.159V80.695C149.402 80.383 149.71 80.1403 150.082 79.967C150.464 79.785 150.88 79.694 151.33 79.694Z" fill="black"/>
<path d="M13.718 99.745C14.384 99.745 14.966 99.874 15.464 100.132C15.968 100.384 16.355 100.75 16.625 101.23C16.901 101.704 17.039 102.259 17.039 102.895C17.039 103.531 16.901 104.083 16.625 104.551C16.355 105.019 15.968 105.379 15.464 105.631C14.966 105.877 14.384 106 13.718 106H11.675V99.745H13.718ZM13.718 105.163C14.45 105.163 15.011 104.965 15.401 104.569C15.791 104.173 15.986 103.615 15.986 102.895C15.986 102.169 15.791 101.602 15.401 101.194C15.011 100.786 14.45 100.582 13.718 100.582H12.701V105.163H13.718ZM17.7139 103.498C17.7139 103 17.8159 102.559 18.0199 102.175C18.2299 101.791 18.5119 101.494 18.8659 101.284C19.2259 101.068 19.6219 100.96 20.0539 100.96C20.4439 100.96 20.7829 101.038 21.0709 101.194C21.3649 101.344 21.5989 101.533 21.7729 101.761V101.041H22.8079V106H21.7729V105.262C21.5989 105.496 21.3619 105.691 21.0619 105.847C20.7619 106.003 20.4199 106.081 20.0359 106.081C19.6099 106.081 19.2199 105.973 18.8659 105.757C18.5119 105.535 18.2299 105.229 18.0199 104.839C17.8159 104.443 17.7139 103.996 17.7139 103.498ZM21.7729 103.516C21.7729 103.174 21.7009 102.877 21.5569 102.625C21.4189 102.373 21.2359 102.181 21.0079 102.049C20.7799 101.917 20.5339 101.851 20.2699 101.851C20.0059 101.851 19.7599 101.917 19.5319 102.049C19.3039 102.175 19.1179 102.364 18.9739 102.616C18.8359 102.862 18.7669 103.156 18.7669 103.498C18.7669 103.84 18.8359 104.14 18.9739 104.398C19.1179 104.656 19.3039 104.854 19.5319 104.992C19.7659 105.124 20.0119 105.19 20.2699 105.19C20.5339 105.19 20.7799 105.124 21.0079 104.992C21.2359 104.86 21.4189 104.668 21.5569 104.416C21.7009 104.158 21.7729 103.858 21.7729 103.516ZM25.3525 101.878V104.623C25.3525 104.809 25.3945 104.944 25.4785 105.028C25.5685 105.106 25.7185 105.145 25.9285 105.145H26.5585V106H25.7485C25.2865 106 24.9325 105.892 24.6865 105.676C24.4405 105.46 24.3175 105.109 24.3175 104.623V101.878H23.7325V101.041H24.3175V99.808H25.3525V101.041H26.5585V101.878H25.3525ZM32.0491 103.399C32.0491 103.585 32.0371 103.753 32.0131 103.903H28.2241C28.2541 104.299 28.4011 104.617 28.6651 104.857C28.9291 105.097 29.2531 105.217 29.6371 105.217C30.1891 105.217 30.5791 104.986 30.8071 104.524H31.9141C31.7641 104.98 31.4911 105.355 31.0951 105.649C30.7051 105.937 30.2191 106.081 29.6371 106.081C29.1631 106.081 28.7371 105.976 28.3591 105.766C27.9871 105.55 27.6931 105.25 27.4771 104.866C27.2671 104.476 27.1621 104.026 27.1621 103.516C27.1621 103.006 27.2641 102.559 27.4681 102.175C27.6781 101.785 27.9691 101.485 28.3411 101.275C28.7191 101.065 29.1511 100.96 29.6371 100.96C30.1051 100.96 30.5221 101.062 30.8881 101.266C31.2541 101.47 31.5391 101.758 31.7431 102.13C31.9471 102.496 32.0491 102.919 32.0491 103.399ZM30.9781 103.075C30.9721 102.697 30.8371 102.394 30.5731 102.166C30.3091 101.938 29.9821 101.824 29.5921 101.824C29.2381 101.824 28.9351 101.938 28.6831 102.166C28.4311 102.388 28.2811 102.691 28.2331 103.075H30.9781ZM33.5808 100.384C33.3948 100.384 33.2388 100.321 33.1128 100.195C32.9868 100.069 32.9238 99.913 32.9238 99.727C32.9238 99.541 32.9868 99.385 33.1128 99.259C33.2388 99.133 33.3948 99.07 33.5808 99.07C33.7608 99.07 33.9138 99.133 34.0398 99.259C34.1658 99.385 34.2288 99.541 34.2288 99.727C34.2288 99.913 34.1658 100.069 34.0398 100.195C33.9138 100.321 33.7608 100.384 33.5808 100.384ZM34.0848 101.041V106H33.0588V101.041H34.0848ZM37.4277 103.498C37.4277 103 37.5297 102.559 37.7337 102.175C37.9437 101.791 38.2257 101.494 38.5797 101.284C38.9397 101.068 39.3357 100.96 39.7677 100.96C40.1577 100.96 40.4967 101.038 40.7847 101.194C41.0787 101.344 41.3127 101.533 41.4867 101.761V101.041H42.5217V106H41.4867V105.262C41.3127 105.496 41.0757 105.691 40.7757 105.847C40.4757 106.003 40.1337 106.081 39.7497 106.081C39.3237 106.081 38.9337 105.973 38.5797 105.757C38.2257 105.535 37.9437 105.229 37.7337 104.839C37.5297 104.443 37.4277 103.996 37.4277 103.498ZM41.4867 103.516C41.4867 103.174 41.4147 102.877 41.2707 102.625C41.1327 102.373 40.9497 102.181 40.7217 102.049C40.4937 101.917 40.2477 101.851 39.9837 101.851C39.7197 101.851 39.4737 101.917 39.2457 102.049C39.0177 102.175 38.8317 102.364 38.6877 102.616C38.5497 102.862 38.4807 103.156 38.4807 103.498C38.4807 103.84 38.5497 104.14 38.6877 104.398C38.8317 104.656 39.0177 104.854 39.2457 104.992C39.4797 105.124 39.7257 105.19 39.9837 105.19C40.2477 105.19 40.4937 105.124 40.7217 104.992C40.9497 104.86 41.1327 104.668 41.2707 104.416C41.4147 104.158 41.4867 103.858 41.4867 103.516ZM48.3603 101.041V106H47.3343V105.415C47.1723 105.619 46.9593 105.781 46.6953 105.901C46.4373 106.015 46.1613 106.072 45.8673 106.072C45.4773 106.072 45.1263 105.991 44.8143 105.829C44.5083 105.667 44.2653 105.427 44.0853 105.109C43.9113 104.791 43.8243 104.407 43.8243 103.957V101.041H44.8413V103.804C44.8413 104.248 44.9523 104.59 45.1743 104.83C45.3963 105.064 45.6993 105.181 46.0833 105.181C46.4673 105.181 46.7703 105.064 46.9923 104.83C47.2203 104.59 47.3343 104.248 47.3343 103.804V101.041H48.3603ZM51.5141 106.081C51.1241 106.081 50.7731 106.012 50.4611 105.874C50.1551 105.73 49.9121 105.538 49.7321 105.298C49.5521 105.052 49.4561 104.779 49.4441 104.479H50.5061C50.5241 104.689 50.6231 104.866 50.8031 105.01C50.9891 105.148 51.2201 105.217 51.4961 105.217C51.7841 105.217 52.0061 105.163 52.1621 105.055C52.3241 104.941 52.4051 104.797 52.4051 104.623C52.4051 104.437 52.3151 104.299 52.1351 104.209C51.9611 104.119 51.6821 104.02 51.2981 103.912C50.9261 103.81 50.6231 103.711 50.3891 103.615C50.1551 103.519 49.9511 103.372 49.7771 103.174C49.6091 102.976 49.5251 102.715 49.5251 102.391C49.5251 102.127 49.6031 101.887 49.7591 101.671C49.9151 101.449 50.1371 101.275 50.4251 101.149C50.7191 101.023 51.0551 100.96 51.4331 100.96C51.9971 100.96 52.4501 101.104 52.7921 101.392C53.1401 101.674 53.3261 102.061 53.3501 102.553H52.3241C52.3061 102.331 52.2161 102.154 52.0541 102.022C51.8921 101.89 51.6731 101.824 51.3971 101.824C51.1271 101.824 50.9201 101.875 50.7761 101.977C50.6321 102.079 50.5601 102.214 50.5601 102.382C50.5601 102.514 50.6081 102.625 50.7041 102.715C50.8001 102.805 50.9171 102.877 51.0551 102.931C51.1931 102.979 51.3971 103.042 51.6671 103.12C52.0271 103.216 52.3211 103.315 52.5491 103.417C52.7831 103.513 52.9841 103.657 53.1521 103.849C53.3201 104.041 53.4071 104.296 53.4131 104.614C53.4131 104.896 53.3351 105.148 53.1791 105.37C53.0231 105.592 52.8011 105.766 52.5131 105.892C52.2311 106.018 51.8981 106.081 51.5141 106.081ZM56.3217 106.081C55.9317 106.081 55.5807 106.012 55.2687 105.874C54.9627 105.73 54.7197 105.538 54.5397 105.298C54.3597 105.052 54.2637 104.779 54.2517 104.479H55.3137C55.3317 104.689 55.4307 104.866 55.6107 105.01C55.7967 105.148 56.0277 105.217 56.3037 105.217C56.5917 105.217 56.8137 105.163 56.9697 105.055C57.1317 104.941 57.2127 104.797 57.2127 104.623C57.2127 104.437 57.1227 104.299 56.9427 104.209C56.7687 104.119 56.4897 104.02 56.1057 103.912C55.7337 103.81 55.4307 103.711 55.1967 103.615C54.9627 103.519 54.7587 103.372 54.5847 103.174C54.4167 102.976 54.3327 102.715 54.3327 102.391C54.3327 102.127 54.4107 101.887 54.5667 101.671C54.7227 101.449 54.9447 101.275 55.2327 101.149C55.5267 101.023 55.8627 100.96 56.2407 100.96C56.8047 100.96 57.2577 101.104 57.5997 101.392C57.9477 101.674 58.1337 102.061 58.1577 102.553H57.1317C57.1137 102.331 57.0237 102.154 56.8617 102.022C56.6997 101.89 56.4807 101.824 56.2047 101.824C55.9347 101.824 55.7277 101.875 55.5837 101.977C55.4397 102.079 55.3677 102.214 55.3677 102.382C55.3677 102.514 55.4157 102.625 55.5117 102.715C55.6077 102.805 55.7247 102.877 55.8627 102.931C56.0007 102.979 56.2047 103.042 56.4747 103.12C56.8347 103.216 57.1287 103.315 57.3567 103.417C57.5907 103.513 57.7917 103.657 57.9597 103.849C58.1277 104.041 58.2147 104.296 58.2207 104.614C58.2207 104.896 58.1427 105.148 57.9867 105.37C57.8307 105.592 57.6087 105.766 57.3207 105.892C57.0387 106.018 56.7057 106.081 56.3217 106.081ZM63.8203 101.041V106H62.7943V105.415C62.6323 105.619 62.4193 105.781 62.1553 105.901C61.8973 106.015 61.6213 106.072 61.3273 106.072C60.9373 106.072 60.5863 105.991 60.2743 105.829C59.9683 105.667 59.7253 105.427 59.5453 105.109C59.3713 104.791 59.2843 104.407 59.2843 103.957V101.041H60.3013V103.804C60.3013 104.248 60.4123 104.59 60.6343 104.83C60.8563 105.064 61.1593 105.181 61.5433 105.181C61.9273 105.181 62.2303 105.064 62.4523 104.83C62.6803 104.59 62.7943 104.248 62.7943 103.804V101.041H63.8203ZM64.832 103.516C64.832 103.006 64.934 102.559 65.138 102.175C65.348 101.785 65.636 101.485 66.002 101.275C66.368 101.065 66.788 100.96 67.262 100.96C67.862 100.96 68.357 101.104 68.747 101.392C69.143 101.674 69.41 102.079 69.548 102.607H68.441C68.351 102.361 68.207 102.169 68.009 102.031C67.811 101.893 67.562 101.824 67.262 101.824C66.842 101.824 66.506 101.974 66.254 102.274C66.008 102.568 65.885 102.982 65.885 103.516C65.885 104.05 66.008 104.467 66.254 104.767C66.506 105.067 66.842 105.217 67.262 105.217C67.856 105.217 68.249 104.956 68.441 104.434H69.548C69.404 104.938 69.134 105.34 68.738 105.64C68.342 105.934 67.85 106.081 67.262 106.081C66.788 106.081 66.368 105.976 66.002 105.766C65.636 105.55 65.348 105.25 65.138 104.866C64.934 104.476 64.832 104.026 64.832 103.516ZM73.1355 100.96C73.5135 100.96 73.8495 101.041 74.1435 101.203C74.4435 101.365 74.6775 101.605 74.8455 101.923C75.0195 102.241 75.1065 102.625 75.1065 103.075V106H74.0895V103.228C74.0895 102.784 73.9785 102.445 73.7565 102.211C73.5345 101.971 73.2315 101.851 72.8475 101.851C72.4635 101.851 72.1575 101.971 71.9295 102.211C71.7075 102.445 71.5965 102.784 71.5965 103.228V106H70.5705V99.34H71.5965V101.617C71.7705 101.407 71.9895 101.245 72.2535 101.131C72.5235 101.017 72.8175 100.96 73.1355 100.96ZM80.9602 103.399C80.9602 103.585 80.9482 103.753 80.9242 103.903H77.1352C77.1652 104.299 77.3122 104.617 77.5762 104.857C77.8402 105.097 78.1642 105.217 78.5482 105.217C79.1002 105.217 79.4902 104.986 79.7182 104.524H80.8252C80.6752 104.98 80.4022 105.355 80.0062 105.649C79.6162 105.937 79.1302 106.081 78.5482 106.081C78.0742 106.081 77.6482 105.976 77.2702 105.766C76.8982 105.55 76.6042 105.25 76.3882 104.866C76.1782 104.476 76.0732 104.026 76.0732 103.516C76.0732 103.006 76.1752 102.559 76.3792 102.175C76.5892 101.785 76.8802 101.485 77.2522 101.275C77.6302 101.065 78.0622 100.96 78.5482 100.96C79.0162 100.96 79.4332 101.062 79.7992 101.266C80.1652 101.47 80.4502 101.758 80.6542 102.13C80.8582 102.496 80.9602 102.919 80.9602 103.399ZM79.8892 103.075C79.8832 102.697 79.7482 102.394 79.4842 102.166C79.2202 101.938 78.8932 101.824 78.5032 101.824C78.1492 101.824 77.8462 101.938 77.5942 102.166C77.3422 102.388 77.1922 102.691 77.1442 103.075H79.8892ZM84.4719 100.96C84.8619 100.96 85.2099 101.041 85.5159 101.203C85.8279 101.365 86.0709 101.605 86.2449 101.923C86.4189 102.241 86.5059 102.625 86.5059 103.075V106H85.4889V103.228C85.4889 102.784 85.3779 102.445 85.1559 102.211C84.9339 101.971 84.6309 101.851 84.2469 101.851C83.8629 101.851 83.5569 101.971 83.3289 102.211C83.1069 102.445 82.9959 102.784 82.9959 103.228V106H81.9699V101.041H82.9959V101.608C83.1639 101.404 83.3769 101.245 83.6349 101.131C83.8989 101.017 84.1779 100.96 84.4719 100.96Z" fill="#EC6707"/>
<path d="M92.3035 106.081C91.8355 106.081 91.4125 105.976 91.0345 105.766C90.6565 105.55 90.3595 105.25 90.1435 104.866C89.9275 104.476 89.8195 104.026 89.8195 103.516C89.8195 103.012 89.9305 102.565 90.1525 102.175C90.3745 101.785 90.6775 101.485 91.0615 101.275C91.4455 101.065 91.8745 100.96 92.3485 100.96C92.8225 100.96 93.2515 101.065 93.6355 101.275C94.0195 101.485 94.3225 101.785 94.5445 102.175C94.7665 102.565 94.8775 103.012 94.8775 103.516C94.8775 104.02 94.7635 104.467 94.5355 104.857C94.3075 105.247 93.9955 105.55 93.5995 105.766C93.2095 105.976 92.7775 106.081 92.3035 106.081ZM92.3035 105.19C92.5675 105.19 92.8135 105.127 93.0415 105.001C93.2755 104.875 93.4645 104.686 93.6085 104.434C93.7525 104.182 93.8245 103.876 93.8245 103.516C93.8245 103.156 93.7555 102.853 93.6175 102.607C93.4795 102.355 93.2965 102.166 93.0685 102.04C92.8405 101.914 92.5945 101.851 92.3305 101.851C92.0665 101.851 91.8205 101.914 91.5925 102.04C91.3705 102.166 91.1935 102.355 91.0615 102.607C90.9295 102.853 90.8635 103.156 90.8635 103.516C90.8635 104.05 90.9985 104.464 91.2685 104.758C91.5445 105.046 91.8895 105.19 92.3035 105.19ZM95.5498 103.498C95.5498 103 95.6518 102.559 95.8558 102.175C96.0658 101.791 96.3478 101.494 96.7018 101.284C97.0618 101.068 97.4608 100.96 97.8988 100.96C98.2228 100.96 98.5408 101.032 98.8528 101.176C99.1708 101.314 99.4228 101.5 99.6088 101.734V99.34H100.644V106H99.6088V105.253C99.4408 105.493 99.2068 105.691 98.9068 105.847C98.6128 106.003 98.2738 106.081 97.8898 106.081C97.4578 106.081 97.0618 105.973 96.7018 105.757C96.3478 105.535 96.0658 105.229 95.8558 104.839C95.6518 104.443 95.5498 103.996 95.5498 103.498ZM99.6088 103.516C99.6088 103.174 99.5368 102.877 99.3928 102.625C99.2548 102.373 99.0718 102.181 98.8438 102.049C98.6158 101.917 98.3698 101.851 98.1058 101.851C97.8418 101.851 97.5958 101.917 97.3678 102.049C97.1398 102.175 96.9538 102.364 96.8098 102.616C96.6718 102.862 96.6028 103.156 96.6028 103.498C96.6028 103.84 96.6718 104.14 96.8098 104.398C96.9538 104.656 97.1398 104.854 97.3678 104.992C97.6018 105.124 97.8478 105.19 98.1058 105.19C98.3698 105.19 98.6158 105.124 98.8438 104.992C99.0718 104.86 99.2548 104.668 99.3928 104.416C99.5368 104.158 99.6088 103.858 99.6088 103.516ZM106.536 103.399C106.536 103.585 106.524 103.753 106.5 103.903H102.711C102.741 104.299 102.888 104.617 103.152 104.857C103.416 105.097 103.74 105.217 104.124 105.217C104.676 105.217 105.066 104.986 105.294 104.524H106.401C106.251 104.98 105.978 105.355 105.582 105.649C105.192 105.937 104.706 106.081 104.124 106.081C103.65 106.081 103.224 105.976 102.846 105.766C102.474 105.55 102.18 105.25 101.964 104.866C101.754 104.476 101.649 104.026 101.649 103.516C101.649 103.006 101.751 102.559 101.955 102.175C102.165 101.785 102.456 101.485 102.828 101.275C103.206 101.065 103.638 100.96 104.124 100.96C104.592 100.96 105.009 101.062 105.375 101.266C105.741 101.47 106.026 101.758 106.23 102.13C106.434 102.496 106.536 102.919 106.536 103.399ZM105.465 103.075C105.459 102.697 105.324 102.394 105.06 102.166C104.796 101.938 104.469 101.824 104.079 101.824C103.725 101.824 103.422 101.938 103.17 102.166C102.918 102.388 102.768 102.691 102.72 103.075H105.465ZM108.572 101.761C108.722 101.509 108.92 101.314 109.166 101.176C109.418 101.032 109.715 100.96 110.057 100.96V102.022H109.796C109.394 102.022 109.088 102.124 108.878 102.328C108.674 102.532 108.572 102.886 108.572 103.39V106H107.546V101.041H108.572V101.761ZM115.903 100.96C116.281 100.96 116.617 101.041 116.911 101.203C117.211 101.365 117.445 101.605 117.613 101.923C117.787 102.241 117.874 102.625 117.874 103.075V106H116.857V103.228C116.857 102.784 116.746 102.445 116.524 102.211C116.302 101.971 115.999 101.851 115.615 101.851C115.231 101.851 114.925 101.971 114.697 102.211C114.475 102.445 114.364 102.784 114.364 103.228V106H113.338V99.34H114.364V101.617C114.538 101.407 114.757 101.245 115.021 101.131C115.291 101.017 115.585 100.96 115.903 100.96ZM119.705 100.384C119.519 100.384 119.363 100.321 119.237 100.195C119.111 100.069 119.048 99.913 119.048 99.727C119.048 99.541 119.111 99.385 119.237 99.259C119.363 99.133 119.519 99.07 119.705 99.07C119.885 99.07 120.038 99.133 120.164 99.259C120.29 99.385 120.353 99.541 120.353 99.727C120.353 99.913 120.29 100.069 120.164 100.195C120.038 100.321 119.885 100.384 119.705 100.384ZM120.209 101.041V106H119.183V101.041H120.209ZM126.101 103.399C126.101 103.585 126.089 103.753 126.065 103.903H122.276C122.306 104.299 122.453 104.617 122.717 104.857C122.981 105.097 123.305 105.217 123.689 105.217C124.241 105.217 124.631 104.986 124.859 104.524H125.966C125.816 104.98 125.543 105.355 125.147 105.649C124.757 105.937 124.271 106.081 123.689 106.081C123.215 106.081 122.789 105.976 122.411 105.766C122.039 105.55 121.745 105.25 121.529 104.866C121.319 104.476 121.214 104.026 121.214 103.516C121.214 103.006 121.316 102.559 121.52 102.175C121.73 101.785 122.021 101.485 122.393 101.275C122.771 101.065 123.203 100.96 123.689 100.96C124.157 100.96 124.574 101.062 124.94 101.266C125.306 101.47 125.591 101.758 125.795 102.13C125.999 102.496 126.101 102.919 126.101 103.399ZM125.03 103.075C125.024 102.697 124.889 102.394 124.625 102.166C124.361 101.938 124.034 101.824 123.644 101.824C123.29 101.824 122.987 101.938 122.735 102.166C122.483 102.388 122.333 102.691 122.285 103.075H125.03ZM128.137 101.761C128.287 101.509 128.485 101.314 128.731 101.176C128.983 101.032 129.28 100.96 129.622 100.96V102.022H129.361C128.959 102.022 128.653 102.124 128.443 102.328C128.239 102.532 128.137 102.886 128.137 103.39V106H127.111V101.041H128.137V101.761ZM133.13 100.96C133.508 100.96 133.844 101.041 134.138 101.203C134.438 101.365 134.672 101.605 134.84 101.923C135.014 102.241 135.101 102.625 135.101 103.075V106H134.084V103.228C134.084 102.784 133.973 102.445 133.751 102.211C133.529 101.971 133.226 101.851 132.842 101.851C132.458 101.851 132.152 101.971 131.924 102.211C131.702 102.445 131.591 102.784 131.591 103.228V106H130.565V99.34H131.591V101.617C131.765 101.407 131.984 101.245 132.248 101.131C132.518 101.017 132.812 100.96 133.13 100.96ZM140.954 103.399C140.954 103.585 140.942 103.753 140.918 103.903H137.129C137.159 104.299 137.306 104.617 137.57 104.857C137.834 105.097 138.158 105.217 138.542 105.217C139.094 105.217 139.484 104.986 139.712 104.524H140.819C140.669 104.98 140.396 105.355 140 105.649C139.61 105.937 139.124 106.081 138.542 106.081C138.068 106.081 137.642 105.976 137.264 105.766C136.892 105.55 136.598 105.25 136.382 104.866C136.172 104.476 136.067 104.026 136.067 103.516C136.067 103.006 136.169 102.559 136.373 102.175C136.583 101.785 136.874 101.485 137.246 101.275C137.624 101.065 138.056 100.96 138.542 100.96C139.01 100.96 139.427 101.062 139.793 101.266C140.159 101.47 140.444 101.758 140.648 102.13C140.852 102.496 140.954 102.919 140.954 103.399ZM139.883 103.075C139.877 102.697 139.742 102.394 139.478 102.166C139.214 101.938 138.887 101.824 138.497 101.824C138.143 101.824 137.84 101.938 137.588 102.166C137.336 102.388 137.186 102.691 137.138 103.075H139.883ZM142.99 101.761C143.14 101.509 143.338 101.314 143.584 101.176C143.836 101.032 144.133 100.96 144.475 100.96V102.022H144.214C143.812 102.022 143.506 102.124 143.296 102.328C143.092 102.532 142.99 102.886 142.99 103.39V106H141.964V101.041H142.99V101.761ZM148.665 105.163H150.915V106H147.477V105.163L149.736 101.878H147.477V101.041H150.915V101.878L148.665 105.163ZM152.514 100.384C152.328 100.384 152.172 100.321 152.046 100.195C151.92 100.069 151.857 99.913 151.857 99.727C151.857 99.541 151.92 99.385 152.046 99.259C152.172 99.133 152.328 99.07 152.514 99.07C152.694 99.07 152.847 99.133 152.973 99.259C153.099 99.385 153.162 99.541 153.162 99.727C153.162 99.913 153.099 100.069 152.973 100.195C152.847 100.321 152.694 100.384 152.514 100.384ZM153.018 101.041V106H151.992V101.041H153.018ZM158.91 103.399C158.91 103.585 158.898 103.753 158.874 103.903H155.085C155.115 104.299 155.262 104.617 155.526 104.857C155.79 105.097 156.114 105.217 156.498 105.217C157.05 105.217 157.44 104.986 157.668 104.524H158.775C158.625 104.98 158.352 105.355 157.956 105.649C157.566 105.937 157.08 106.081 156.498 106.081C156.024 106.081 155.598 105.976 155.22 105.766C154.848 105.55 154.554 105.25 154.338 104.866C154.128 104.476 154.023 104.026 154.023 103.516C154.023 103.006 154.125 102.559 154.329 102.175C154.539 101.785 154.83 101.485 155.202 101.275C155.58 101.065 156.012 100.96 156.498 100.96C156.966 100.96 157.383 101.062 157.749 101.266C158.115 101.47 158.4 101.758 158.604 102.13C158.808 102.496 158.91 102.919 158.91 103.399ZM157.839 103.075C157.833 102.697 157.698 102.394 157.434 102.166C157.17 101.938 156.843 101.824 156.453 101.824C156.099 101.824 155.796 101.938 155.544 102.166C155.292 102.388 155.142 102.691 155.094 103.075H157.839ZM162.485 100.96C162.863 100.96 163.199 101.041 163.493 101.203C163.793 101.365 164.027 101.605 164.195 101.923C164.369 102.241 164.456 102.625 164.456 103.075V106H163.439V103.228C163.439 102.784 163.328 102.445 163.106 102.211C162.884 101.971 162.581 101.851 162.197 101.851C161.813 101.851 161.507 101.971 161.279 102.211C161.057 102.445 160.946 102.784 160.946 103.228V106H159.92V99.34H160.946V101.617C161.12 101.407 161.339 101.245 161.603 101.131C161.873 101.017 162.167 100.96 162.485 100.96ZM170.31 103.399C170.31 103.585 170.298 103.753 170.274 103.903H166.485C166.515 104.299 166.662 104.617 166.926 104.857C167.19 105.097 167.514 105.217 167.898 105.217C168.45 105.217 168.84 104.986 169.068 104.524H170.175C170.025 104.98 169.752 105.355 169.356 105.649C168.966 105.937 168.48 106.081 167.898 106.081C167.424 106.081 166.998 105.976 166.62 105.766C166.248 105.55 165.954 105.25 165.738 104.866C165.528 104.476 165.423 104.026 165.423 103.516C165.423 103.006 165.525 102.559 165.729 102.175C165.939 101.785 166.23 101.485 166.602 101.275C166.98 101.065 167.412 100.96 167.898 100.96C168.366 100.96 168.783 101.062 169.149 101.266C169.515 101.47 169.8 101.758 170.004 102.13C170.208 102.496 170.31 102.919 170.31 103.399ZM169.239 103.075C169.233 102.697 169.098 102.394 168.834 102.166C168.57 101.938 168.243 101.824 167.853 101.824C167.499 101.824 167.196 101.938 166.944 102.166C166.692 102.388 166.542 102.691 166.494 103.075H169.239ZM173.822 100.96C174.212 100.96 174.56 101.041 174.866 101.203C175.178 101.365 175.421 101.605 175.595 101.923C175.769 102.241 175.856 102.625 175.856 103.075V106H174.839V103.228C174.839 102.784 174.728 102.445 174.506 102.211C174.284 101.971 173.981 101.851 173.597 101.851C173.213 101.851 172.907 101.971 172.679 102.211C172.457 102.445 172.346 102.784 172.346 103.228V106H171.32V101.041H172.346V101.608C172.514 101.404 172.727 101.245 172.985 101.131C173.249 101.017 173.528 100.96 173.822 100.96ZM177.578 106.063C177.392 106.063 177.236 106 177.11 105.874C176.984 105.748 176.921 105.592 176.921 105.406C176.921 105.22 176.984 105.064 177.11 104.938C177.236 104.812 177.392 104.749 177.578 104.749C177.758 104.749 177.911 104.812 178.037 104.938C178.163 105.064 178.226 105.22 178.226 105.406C178.226 105.592 178.163 105.748 178.037 105.874C177.911 106 177.758 106.063 177.578 106.063Z" fill="#ADADAE"/>
<path d="M11 106.9H87.1359V107.35H11V106.9Z" fill="#EC6707"/>
</svg>
